<?xml version="1.0" encoding="utf-8"?>
<!-- Generator: Adobe Illustrator 16.2.0, SVG Export Plug-In . SVG Version: 6.00 Build 0)  -->
<!DOCTYPE svg PUBLIC "-//W3C//DTD SVG 1.1//EN" "http://www.w3.org/Graphics/SVG/1.1/DTD/svg11.dtd">
<svg version="1.1" id="Layer_1" xmlns="http://www.w3.org/2000/svg" xmlns:xlink="http://www.w3.org/1999/xlink" x="0px" y="0px"
	viewBox="0 0 120 140" enable-background="new 0 0 120 140" xml:space="preserve">
<path fill-rule="evenodd" clip-rule="evenodd" fill="#1A1A1A" d="M96.059,73.615c2.199-10.25,0.045-21.254-6.471-30.04l-8.037,7.556
	c6.842,10.245,5.74,24.225-3.305,33.271c-10.299,10.296-26.997,10.296-37.293,0c-8.96-8.959-10.125-22.76-3.498-32.978l-8.053-7.566
	c-6.354,8.734-8.442,19.606-6.268,29.749c2.875,13.408,27.328,41.38,36.463,53.5C68.73,114.993,93.186,87.017,96.059,73.615"/>
<path fill-rule="evenodd" clip-rule="evenodd" fill="#DB0000" d="M86.627,40.053c-0.217-0.227-0.434-0.45-0.656-0.672
	c-14.564-14.564-38.181-14.564-52.743,0c-0.307,0.302-0.603,0.614-0.894,0.925l7.962,7.483c0.213-0.233,0.431-0.46,0.657-0.686
	c10.296-10.298,26.997-10.298,37.293,0c0.143,0.143,0.281,0.286,0.418,0.429L86.627,40.053z"/>
<path fill-rule="evenodd" clip-rule="evenodd" fill="#DB0000" d="M90.217,36.678c-0.25-0.263-0.504-0.524-0.764-0.781
	c-16.486-16.49-43.221-16.49-59.71,0c-0.342,0.337-0.671,0.687-0.999,1.035l-2.642-2.484l-5.108-4.801
	c0.4-0.429,0.809-0.854,1.228-1.274c20.642-20.641,54.113-20.641,74.753,0c0.338,0.337,0.666,0.679,0.992,1.019l-5.377,5.057
	L90.217,36.678z"/>
<path fill="#DB0000" d="M46.297,82.171v-8.343c1.512,1.273,3.157,2.224,4.927,2.855c1.771,0.63,3.557,0.95,5.363,0.95
	c1.066,0,1.991-0.099,2.774-0.285c0.791-0.194,1.45-0.454,1.983-0.8c0.533-0.336,0.924-0.737,1.184-1.191
	c0.266-0.463,0.391-0.96,0.391-1.502c0-0.73-0.203-1.377-0.623-1.947c-0.418-0.578-0.986-1.11-1.706-1.592
	c-0.723-0.489-1.576-0.963-2.573-1.404c-0.985-0.453-2.052-0.916-3.201-1.388c-2.915-1.208-5.093-2.694-6.525-4.456
	c-1.432-1.751-2.144-3.868-2.144-6.349c0-1.949,0.382-3.617,1.166-5.015c0.782-1.404,1.849-2.551,3.192-3.458
	c1.351-0.899,2.908-1.566,4.679-1.992c1.767-0.427,3.645-0.641,5.627-0.641c1.948,0,3.672,0.126,5.176,0.358
	c1.494,0.229,2.881,0.594,4.152,1.083v7.79c-0.633-0.436-1.307-0.818-2.045-1.147c-0.738-0.33-1.504-0.605-2.287-0.827
	c-0.773-0.214-1.557-0.373-2.328-0.48c-0.773-0.097-1.504-0.152-2.197-0.152c-0.962,0-1.823,0.091-2.606,0.269
	c-0.782,0.187-1.441,0.443-1.983,0.773c-0.533,0.33-0.952,0.723-1.253,1.184c-0.292,0.462-0.435,0.977-0.435,1.544
	c0,0.633,0.159,1.193,0.488,1.683c0.328,0.498,0.799,0.969,1.415,1.414c0.604,0.435,1.342,0.873,2.213,1.298
	c0.861,0.428,1.852,0.861,2.944,1.318c1.494,0.622,2.828,1.287,4.02,1.989c1.191,0.703,2.213,1.502,3.057,2.382
	c0.854,0.891,1.504,1.905,1.959,3.043c0.451,1.129,0.674,2.453,0.674,3.965c0,2.091-0.391,3.832-1.182,5.257
	c-0.793,1.412-1.861,2.559-3.219,3.429c-1.352,0.881-2.926,1.515-4.721,1.896c-1.807,0.381-3.7,0.568-5.703,0.568
	c-2.045,0-3.991-0.168-5.843-0.517C49.258,83.387,47.649,82.86,46.297,82.171"/>
</svg>
